<svg width="25" height="24" viewBox="0 0 25 24" fill="none" xmlns="http://www.w3.org/2000/svg">
<g clip-path="url(#clip0_833_4091)">
<path d="M24.75 12C24.75 5.37258 19.3774 0 12.75 0C6.12258 0 0.75 5.37258 0.75 12C0.75 18.6274 6.12258 24 12.75 24C19.3774 24 24.75 18.6274 24.75 12Z" fill="#FF3D00"/>
<path fill-rule="evenodd" clip-rule="evenodd" d="M6.85156 6.1825V10.8277L8.50981 12.4878V7.84259L13.132 7.85808L11.4746 6.19717L6.85246 6.18164L6.85156 6.1825ZM15.2609 9.89789V14.0919L13.6026 12.4318V8.2378L15.2609 9.89789ZM10.6377 14.5283H14.825L13.1676 12.8674H8.98032L10.6377 14.5283ZM17.6175 16.4313V12.2583L15.9593 10.5983V15.2434L11.3371 15.2279L12.9945 16.8889L17.1744 16.9029L18.0559 17.7858L18.6203 17.8666L18.5128 17.3282L17.6175 16.4313Z" fill="white"/>
</g>
<defs>
<clipPath id="clip0_833_4091">
<rect width="24" height="24" fill="white" transform="translate(0.75)"/>
</clipPath>
</defs>
</svg>
